<mxfile host="app.diagrams.net" modified="2024-04-19T07:13:47.764Z" agent="Mozilla/5.0 (Windows NT 10.0; Win64; x64) AppleWebKit/537.36 (KHTML, like Gecko) Chrome/123.0.0.0 Safari/537.36" etag="9NZmQYtMv03gor6t3MMv" version="24.2.5" type="device">
  <diagram id="C5RBs43oDa-KdzZeNtuy" name="Page-1">
    <mxGraphModel dx="1050" dy="522" grid="1" gridSize="10" guides="1" tooltips="1" connect="1" arrows="1" fold="1" page="1" pageScale="1" pageWidth="827" pageHeight="1169" math="0" shadow="0">
      <root>
        <mxCell id="WIyWlLk6GJQsqaUBKTNV-0" />
        <mxCell id="WIyWlLk6GJQsqaUBKTNV-1" parent="WIyWlLk6GJQsqaUBKTNV-0" />
        <mxCell id="2TzRCmicG8NJ1tQ5Z_dB-3" value="Splunk Server&lt;div&gt;IP: 192.168.10.10&lt;/div&gt;" style="outlineConnect=0;dashed=0;verticalLabelPosition=bottom;verticalAlign=top;align=center;html=1;shape=mxgraph.aws3.traditional_server;fillColor=#7D7C7C;gradientColor=none;" vertex="1" parent="WIyWlLk6GJQsqaUBKTNV-1">
          <mxGeometry x="193.5" y="100" width="46.5" height="63" as="geometry" />
        </mxCell>
        <mxCell id="2TzRCmicG8NJ1tQ5Z_dB-4" value="Active Directory&lt;div&gt;IP: 192.168.10.7&lt;/div&gt;&lt;div&gt;Splunk Universal Forwarder&lt;/div&gt;&lt;div&gt;Sysmon&lt;/div&gt;" style="outlineConnect=0;dashed=0;verticalLabelPosition=bottom;verticalAlign=top;align=center;html=1;shape=mxgraph.aws3.traditional_server;fillColor=#7D7C7C;gradientColor=none;" vertex="1" parent="WIyWlLk6GJQsqaUBKTNV-1">
          <mxGeometry x="600" y="100" width="46.5" height="63" as="geometry" />
        </mxCell>
        <mxCell id="2TzRCmicG8NJ1tQ5Z_dB-5" value="Windows 10&lt;div&gt;IP: DHCP&lt;/div&gt;&lt;div&gt;Splunk Universal Forwarder&lt;/div&gt;&lt;div&gt;Sysmon&lt;/div&gt;&lt;div&gt;Atomic Red Team&lt;/div&gt;" style="verticalLabelPosition=bottom;html=1;verticalAlign=top;align=center;strokeColor=none;fillColor=#00BEF2;shape=mxgraph.azure.computer;pointerEvents=1;" vertex="1" parent="WIyWlLk6GJQsqaUBKTNV-1">
          <mxGeometry x="191.75" y="380" width="50" height="45" as="geometry" />
        </mxCell>
        <mxCell id="2TzRCmicG8NJ1tQ5Z_dB-6" value="Kali Linux&lt;div&gt;IP: 192.168.10.250&lt;/div&gt;" style="verticalLabelPosition=bottom;html=1;verticalAlign=top;align=center;strokeColor=#C73500;fillColor=#fa6800;shape=mxgraph.azure.computer;pointerEvents=1;fontColor=#000000;" vertex="1" parent="WIyWlLk6GJQsqaUBKTNV-1">
          <mxGeometry x="600" y="380" width="50" height="45" as="geometry" />
        </mxCell>
        <mxCell id="2TzRCmicG8NJ1tQ5Z_dB-11" value="" style="sketch=0;points=[[0.015,0.015,0],[0.985,0.015,0],[0.985,0.985,0],[0.015,0.985,0],[0.25,0,0],[0.5,0,0],[0.75,0,0],[1,0.25,0],[1,0.5,0],[1,0.75,0],[0.75,1,0],[0.5,1,0],[0.25,1,0],[0,0.75,0],[0,0.5,0],[0,0.25,0]];verticalLabelPosition=bottom;html=1;verticalAlign=top;aspect=fixed;align=center;pointerEvents=1;shape=mxgraph.cisco19.rect;prIcon=l2_switch;fillColor=#d0cee2;strokeColor=#56517e;gradientColor=default;" vertex="1" parent="WIyWlLk6GJQsqaUBKTNV-1">
          <mxGeometry x="389" y="260" width="50" height="50" as="geometry" />
        </mxCell>
        <mxCell id="2TzRCmicG8NJ1tQ5Z_dB-21" style="edgeStyle=orthogonalEdgeStyle;rounded=0;orthogonalLoop=1;jettySize=auto;html=1;" edge="1" parent="WIyWlLk6GJQsqaUBKTNV-1" source="2TzRCmicG8NJ1tQ5Z_dB-12" target="2TzRCmicG8NJ1tQ5Z_dB-13">
          <mxGeometry relative="1" as="geometry" />
        </mxCell>
        <mxCell id="2TzRCmicG8NJ1tQ5Z_dB-12" value="" style="sketch=0;points=[[0.5,0,0],[1,0.5,0],[0.5,1,0],[0,0.5,0],[0.145,0.145,0],[0.8555,0.145,0],[0.855,0.8555,0],[0.145,0.855,0]];verticalLabelPosition=bottom;html=1;verticalAlign=top;aspect=fixed;align=center;pointerEvents=1;shape=mxgraph.cisco19.rect;prIcon=router;fillColor=#d5e8d4;strokeColor=#82b366;" vertex="1" parent="WIyWlLk6GJQsqaUBKTNV-1">
          <mxGeometry x="389" y="160" width="50" height="50" as="geometry" />
        </mxCell>
        <mxCell id="2TzRCmicG8NJ1tQ5Z_dB-13" value="Internet" style="ellipse;shape=cloud;whiteSpace=wrap;html=1;" vertex="1" parent="WIyWlLk6GJQsqaUBKTNV-1">
          <mxGeometry x="354" y="30" width="120" height="80" as="geometry" />
        </mxCell>
        <mxCell id="2TzRCmicG8NJ1tQ5Z_dB-14" style="edgeStyle=orthogonalEdgeStyle;rounded=0;orthogonalLoop=1;jettySize=auto;html=1;entryX=0.25;entryY=1;entryDx=0;entryDy=0;entryPerimeter=0;" edge="1" parent="WIyWlLk6GJQsqaUBKTNV-1" source="2TzRCmicG8NJ1tQ5Z_dB-5" target="2TzRCmicG8NJ1tQ5Z_dB-11">
          <mxGeometry relative="1" as="geometry" />
        </mxCell>
        <mxCell id="2TzRCmicG8NJ1tQ5Z_dB-17" style="edgeStyle=orthogonalEdgeStyle;rounded=0;orthogonalLoop=1;jettySize=auto;html=1;entryX=1;entryY=0.25;entryDx=0;entryDy=0;entryPerimeter=0;" edge="1" parent="WIyWlLk6GJQsqaUBKTNV-1" source="2TzRCmicG8NJ1tQ5Z_dB-4" target="2TzRCmicG8NJ1tQ5Z_dB-11">
          <mxGeometry relative="1" as="geometry" />
        </mxCell>
        <mxCell id="2TzRCmicG8NJ1tQ5Z_dB-18" style="edgeStyle=orthogonalEdgeStyle;rounded=0;orthogonalLoop=1;jettySize=auto;html=1;entryX=0;entryY=0.25;entryDx=0;entryDy=0;entryPerimeter=0;" edge="1" parent="WIyWlLk6GJQsqaUBKTNV-1" source="2TzRCmicG8NJ1tQ5Z_dB-3" target="2TzRCmicG8NJ1tQ5Z_dB-11">
          <mxGeometry relative="1" as="geometry" />
        </mxCell>
        <mxCell id="2TzRCmicG8NJ1tQ5Z_dB-20" style="edgeStyle=orthogonalEdgeStyle;rounded=0;orthogonalLoop=1;jettySize=auto;html=1;entryX=0.5;entryY=1;entryDx=0;entryDy=0;entryPerimeter=0;" edge="1" parent="WIyWlLk6GJQsqaUBKTNV-1" source="2TzRCmicG8NJ1tQ5Z_dB-11" target="2TzRCmicG8NJ1tQ5Z_dB-12">
          <mxGeometry relative="1" as="geometry" />
        </mxCell>
        <mxCell id="2TzRCmicG8NJ1tQ5Z_dB-22" value="Domain: My_Local&lt;div&gt;Network: 192.168.10.0/24&lt;/div&gt;&lt;div&gt;Splunk Server: 192.168.10.10&lt;/div&gt;&lt;div&gt;Active Directory 192.168.10.7&lt;/div&gt;&lt;div&gt;Attacker: 192.168.10.250&lt;/div&gt;" style="text;html=1;align=center;verticalAlign=middle;resizable=0;points=[];autosize=1;strokeColor=none;fillColor=none;" vertex="1" parent="WIyWlLk6GJQsqaUBKTNV-1">
          <mxGeometry x="10" y="230" width="180" height="90" as="geometry" />
        </mxCell>
        <mxCell id="2TzRCmicG8NJ1tQ5Z_dB-25" style="edgeStyle=orthogonalEdgeStyle;rounded=0;orthogonalLoop=1;jettySize=auto;html=1;entryX=0.75;entryY=1;entryDx=0;entryDy=0;entryPerimeter=0;" edge="1" parent="WIyWlLk6GJQsqaUBKTNV-1" source="2TzRCmicG8NJ1tQ5Z_dB-6" target="2TzRCmicG8NJ1tQ5Z_dB-11">
          <mxGeometry relative="1" as="geometry" />
        </mxCell>
        <mxCell id="2TzRCmicG8NJ1tQ5Z_dB-28" style="rounded=0;orthogonalLoop=1;jettySize=auto;html=1;entryX=0.5;entryY=1;entryDx=0;entryDy=0;entryPerimeter=0;dashed=1;dashPattern=1 4;endArrow=none;endFill=0;fillColor=#d5e8d4;strokeColor=#82b366;strokeWidth=4;" edge="1" parent="WIyWlLk6GJQsqaUBKTNV-1" source="2TzRCmicG8NJ1tQ5Z_dB-5" target="2TzRCmicG8NJ1tQ5Z_dB-3">
          <mxGeometry relative="1" as="geometry" />
        </mxCell>
        <mxCell id="2TzRCmicG8NJ1tQ5Z_dB-30" style="edgeStyle=orthogonalEdgeStyle;rounded=0;orthogonalLoop=1;jettySize=auto;html=1;entryX=0;entryY=0.5;entryDx=0;entryDy=0;entryPerimeter=0;dashed=1;dashPattern=1 4;endArrow=none;endFill=0;fillColor=#d5e8d4;strokeColor=#82b366;strokeWidth=4;" edge="1" parent="WIyWlLk6GJQsqaUBKTNV-1" source="2TzRCmicG8NJ1tQ5Z_dB-3" target="2TzRCmicG8NJ1tQ5Z_dB-4">
          <mxGeometry relative="1" as="geometry" />
        </mxCell>
      </root>
    </mxGraphModel>
  </diagram>
</mxfile>
